<svg width="117" height="54" viewBox="0 0 117 54" fill="none" xmlns="http://www.w3.org/2000/svg">
<g clip-path="url(#clip0_92_41)">
<path fill-rule="evenodd" clip-rule="evenodd" d="M68.784 25.4314C68.784 24.902 68.7242 23.9069 68.7989 23.4363L68.9284 21.5539C68.9981 20.2794 69.0678 19 69.1425 17.7451C69.1674 17.3284 69.3118 16.4853 69.3566 15.9412C69.3815 15.6324 69.3914 15.3039 69.4263 15.0196L69.501 14.0686C69.5507 13.4412 69.6304 12.8382 69.7101 12.2598C69.9142 10.7304 70.437 8.87745 70.9697 7.47059C71.154 6.98529 71.3382 6.5098 71.5722 6.05392L71.9058 5.39706C72.1995 4.83824 72.7223 4.05392 73.1356 3.57353C73.2252 3.47059 73.2949 3.42647 73.3746 3.31863L74.7786 2.19608C75.8043 1.58333 76.6308 1.51961 77.8158 1.51961C79.4339 1.51961 80.9923 1.92647 82.1773 3.0098C83.2478 3.98529 84.1141 5.12255 84.4875 6.55392C84.9556 8.36275 84.9456 9.16667 84.9456 10.9706C84.9456 11.902 84.1739 13.6275 83.7158 14.3824C83.3324 15.0147 83.3424 15.0245 82.8794 15.6373C82.6802 15.8971 82.3615 16.2892 82.0827 16.4363C82.0827 15.8431 82.4213 14.2843 82.5607 13.7353C82.6702 13.3039 82.7599 12.8725 82.8495 12.4314C82.9789 11.7696 83.0486 11.5735 83.0486 10.8284C83.0486 10.6078 82.715 10.3725 82.5109 10.3725C81.8089 10.3725 81.5599 10.5931 81.3857 11.2745C81.1915 12.0441 80.609 14.9118 80.4994 15.6912L80.1509 18.4167C80.1509 18.6765 80.121 18.6618 79.7775 18.9265L79.0107 19.5147C78.9261 19.5833 78.8614 19.6373 78.7717 19.7059C78.6722 19.7843 78.6024 19.8235 78.5078 19.9069L74.2807 22.8333L71.3033 24.3431M77.8108 22.2206C77.8805 22.1275 78.1593 21.9706 78.2738 21.902L79.7078 20.9853C79.7078 21.5294 79.6082 21.8775 79.5684 22.2941C79.5285 22.7647 79.6181 22.5833 78.951 22.5686C78.7717 22.5686 78.6721 22.5392 78.5078 22.5147C78.0448 22.4363 78.0299 22.5441 77.8058 22.2157L77.8108 22.2206ZM77.6614 0H77.8407C78.5925 0.00980392 79.3344 0.107843 80.0165 0.29902C80.9923 0.573529 81.8985 0.970588 82.7051 1.56863C83.2378 1.96078 83.7108 2.40196 84.1789 2.86765C84.2486 2.93627 84.2486 2.94118 84.3083 3.01961C84.3631 3.08824 84.388 3.10784 84.4427 3.17157C85.0601 3.91667 85.4983 4.73529 85.8817 5.63725C86.0509 6.03922 86.1854 6.4902 86.3049 6.91177C86.3397 7.03922 86.3696 7.22059 86.3995 7.34804C86.8974 9.42647 86.6683 11.9559 85.8966 13.8578C85.6875 14.3725 85.4535 14.8873 85.1796 15.3382L84.7564 16.0147C84.144 16.9216 83.3623 17.8039 82.5159 18.5C82.4561 18.549 82.4213 18.5882 82.3715 18.6373C82.2719 18.7353 82.1972 18.8039 82.1026 18.902C81.55 19.4608 81.5101 20.6471 81.3906 21.4804C81.3508 21.7647 81.3209 22.1667 81.2562 22.4412C82.0329 22.4412 82.6852 22.3382 83.3175 22.1814C84.3432 21.9265 85.0551 21.7696 86.0509 21.4167C86.1804 21.3676 86.3547 21.3284 86.4891 21.2843C87.0866 21.0833 87.7438 20.9559 88.2964 21.3284C88.63 21.549 88.6201 21.7206 88.4458 22.0441C88.2118 22.4755 87.7687 22.5 87.3106 22.6176C85.1896 23.1765 83.4021 23.7108 81.1118 23.7108V24.4167C81.1118 24.5931 81.077 24.6127 81.077 24.8039C81.077 25.0833 81.062 25.3333 81.0421 25.6127C80.8131 28.4559 80.2654 31.4363 81.3658 34.1863C81.5699 34.6912 81.8935 35.1814 82.3715 35.4559C82.8843 35.75 83.5067 35.8088 84.3033 35.8088C84.9705 35.8088 85.4037 35.6373 85.8667 35.4069C86.28 35.2059 86.5787 34.902 86.9372 34.6274C87.2409 34.3971 87.5844 33.9902 87.8931 33.7353C88.167 33.5098 88.635 33.0882 89.098 33.0882C90.2283 33.0882 89.8648 33.8284 89.3818 34.4265C89.1528 34.7059 88.9039 34.9216 88.7346 35.1324C88.5354 35.3824 88.2566 35.5588 88.0325 35.7794C87.8981 35.9118 87.8035 35.9559 87.6492 36.0735C87.2409 36.3824 86.8077 36.5686 86.3248 36.7843C85.3091 37.2304 83.9648 37.4069 82.8594 37.1863C81.4703 36.9118 80.4347 36.0833 79.8621 34.7745C79.5783 34.1226 79.4041 33.4804 79.2696 32.6765C79.185 32.1814 79.0705 30.3627 79.1003 29.7745C79.1103 29.6176 79.1352 29.6029 79.1402 29.4216C79.1402 29.1569 79.1203 28.8775 79.1601 28.6275C79.1949 28.3873 79.1701 28.0735 79.1999 27.8578C79.2198 27.7304 79.2049 27.6078 79.2099 27.4804C79.2198 27.0392 79.3543 25.9706 79.3543 25.6127L79.424 23.848H78.3137C77.4075 23.848 76.1827 23.2059 75.5553 23.5686L74.1812 24.299C74.0766 24.3578 74.0417 24.3824 73.9322 24.4412L71.7564 25.5784C71.2187 25.8873 70.6312 26.0833 70.0735 26.3578C69.73 26.5294 69.3317 26.7598 68.9284 26.8529L69.2172 30.9804C69.2669 30.9265 69.2321 30.9657 69.2769 30.8971L69.5756 30.4118C69.8495 29.9461 69.9491 29.7353 70.3573 29.348C70.8901 28.8382 71.7913 28.7696 72.5381 28.9118C72.9962 29 73.4194 29.2304 73.7729 29.4951C74.7836 30.2549 75.3711 32.0539 75.3861 33.4118C75.3861 33.6078 75.4209 33.6373 75.4259 33.8333L75.4607 35.1422C75.4607 35.7402 74.9828 36.1226 74.4052 35.7549C74.2309 35.6422 74.2409 35.6618 74.1662 35.4657C73.9422 34.9069 74.0617 34.0735 74.0318 33.451C73.992 32.6667 73.6783 31.5931 73.2849 30.9755C72.5331 29.7892 71.2585 29.8775 70.7656 31.2255C70.5664 31.7745 70.437 32.3676 70.3026 33.0245C70.0287 34.3627 70.1333 36.0637 68.8388 36.0637C68.2313 36.0637 68.2114 35.9902 68.0869 35.5343C67.8031 34.5196 67.6737 33.4461 67.5393 32.3726L67.1907 28.9755C67.1907 28.7451 67.1509 28.6373 67.1559 28.3775C67.1559 28.1373 67.121 28 67.121 27.8137C66.8273 27.8382 66.5534 27.9657 66.3294 28.0588C66.1999 28.1176 66.0954 28.1569 65.951 28.2157C65.8165 28.2696 65.7269 28.3284 65.6074 28.3725C64.5469 28.7647 63.5013 29.0539 62.3313 29.2402C60.6584 29.5 58.8012 29.4167 57.1632 29.1471C56.7599 29.0833 56.3914 29.0147 55.9981 28.9216L54.8878 28.6373C53.9965 28.3775 53.1252 28.0588 52.2689 27.7255C51.4523 27.4069 50.6656 27.0196 49.874 26.6275L45.4527 24.1029C45.1639 23.9118 44.9 23.75 44.6063 23.5588C44.0437 23.1863 43.4512 22.8431 42.9134 22.4412C42.2662 21.9608 39.2938 19.9608 38.761 19.652L37.2325 18.7255C36.8541 18.5 36.4707 18.3333 36.0873 18.1225C35.4849 17.7892 34.8177 17.4902 34.1704 17.2598C33.9962 17.1961 33.8368 17.1324 33.6526 17.0637C33.4833 17 33.3141 16.9608 33.1398 16.902C32.7763 16.7843 32.4477 16.6765 32.0544 16.5931C31.671 16.5147 31.3324 16.4118 30.9092 16.3431C29.4554 16.1078 28.3102 16.098 26.8564 16.098C26.6423 16.098 26.5975 16.1324 26.3933 16.1373C25.049 16.152 23.1421 16.3676 21.8277 16.7598C20.812 17.0588 19.7962 17.4216 18.8851 17.951C18.7606 18.0245 18.671 18.0784 18.5565 18.1569C18.447 18.2304 18.3573 18.2696 18.2478 18.348C17.8246 18.6275 17.491 18.9559 17.0977 19.2598C16.8985 19.4069 16.7491 19.6029 16.5898 19.7843C16.311 20.1127 15.8728 20.6765 15.8629 21.1127C17.8246 21.5637 19.8411 22.6667 20.9713 24.3382C22.2011 26.1471 21.743 28.2598 19.7664 28.7696C18.9648 28.9755 18.2627 28.9069 17.486 28.652C17.0927 28.5196 16.7641 28.3284 16.4255 28.1078C15.9575 27.799 15.6438 27.4902 15.2604 27.1029L14.7825 26.5147C13.9111 25.3431 13.463 24.0196 13.463 22.5245C13.3336 22.5343 13.2838 22.5686 13.1444 22.598C12.4125 22.75 11.6806 22.7941 10.9686 23.0294C9.77365 23.4265 9.82842 23.4412 8.82765 23.8824L7.40368 24.701C7.24933 24.8137 7.11988 24.8922 6.96553 25.0098C6.11911 25.6422 5.32248 26.3235 4.62543 27.1127C3.8288 28.0147 3.06703 29.2206 2.61892 30.3186C2.39985 30.8578 2.16584 31.3725 2.01647 31.951C1.68786 33.2549 1.6082 33.8284 1.6082 35.2157C1.6082 36.2647 1.94676 37.5245 2.36002 38.4608C2.48947 38.75 2.63386 39.0833 2.7882 39.3431L3.5699 40.5833C4.20222 41.5 5.08349 42.152 5.96477 42.8088C6.86097 43.4755 7.93642 44.049 8.97702 44.4608L9.98774 44.8039C10.9138 45.0833 11.7752 45.2304 12.8506 45.2304C14.7177 45.2304 16.54 44.7402 18.2229 43.9951C18.442 43.8971 18.661 43.8186 18.8652 43.7108C18.8303 44.1618 18.193 44.5931 17.8495 44.7941C17.725 44.8676 17.6304 44.9167 17.5109 44.9902C17.3815 45.0637 17.3068 45.0833 17.1674 45.1471C16.1766 45.6176 15.1409 45.9951 14.0605 46.2157C13.2539 46.3824 12.756 46.3039 12.1137 46.3824C11.7304 46.4314 10.5952 46.299 10.2218 46.2304C9.06664 46.0147 8.09575 45.7157 7.06511 45.2108C6.37802 44.8726 5.70586 44.4853 5.10341 44.0392L4.22214 43.3529C3.76408 42.9755 3.29606 42.5294 2.91766 42.0637C2.16086 41.1324 1.57832 40.3333 1.04558 39.25C0.632326 38.3971 0.323632 37.4657 0.159327 36.5245C0.0846434 36.098 0.039833 35.6176 0.0149384 35.1176V33.5833C0.0597488 32.5833 0.179243 31.6029 0.373422 30.848C0.487937 30.3922 0.612411 29.9853 0.761779 29.5735C1.05056 28.7892 1.42398 28.0441 1.84221 27.3235C2.63884 25.951 3.70433 24.7647 4.97894 23.8137L5.47683 23.4559C5.83531 23.1912 6.37802 22.8725 6.79127 22.6667L7.63769 22.2647C9.22099 21.4755 11.6706 20.9706 13.8464 20.9706C13.9958 19.2353 15.2355 17.8971 16.4902 16.799C17.3018 16.0882 18.5266 15.2451 19.5324 14.8235C20.1099 14.5833 20.6476 14.3725 21.2601 14.1961C21.5439 14.1127 21.8974 14.0343 22.211 13.9706C22.9629 13.8039 24.6358 13.6324 25.4224 13.6373C25.6266 13.6373 25.8307 13.6373 26.0299 13.6373C26.2838 13.6373 26.3684 13.598 26.6025 13.598C28.37 13.598 30.1325 13.8186 31.8154 14.2892C32.1291 14.3775 32.4427 14.4559 32.7365 14.549L34.519 15.1569C35.3504 15.4265 36.2018 15.8382 36.9835 16.2206L39.6273 17.7108C39.7717 17.7941 39.8464 17.8333 39.9858 17.9216C40.1203 18.0098 40.2348 18.0735 40.3642 18.1471C40.4937 18.2255 40.5883 18.299 40.7327 18.3873C41.7135 18.9657 42.6446 19.6176 43.6254 20.1961C43.8594 20.3333 44.1084 20.5196 44.3474 20.652C44.4918 20.7353 44.5814 20.7843 44.7258 20.8775C44.8652 20.9706 44.9399 21.0049 45.0843 21.0882L48.8284 23.2598L52.8116 25.1912C56.1674 26.6029 59.8617 27.6618 63.571 27.0539C64.288 26.9363 64.7959 26.7794 65.463 26.5882C65.951 26.451 66.9169 25.951 67.131 25.902C67.131 24.3578 67.121 22.8971 67.2704 21.5245C67.3401 20.8922 67.4198 20.0637 67.4198 19.4118C67.4198 18.6569 67.5641 18.0294 67.5641 17.2941C67.5641 16.7353 67.6239 16.2402 67.6339 15.6716C67.6339 15.5343 67.6587 15.3137 67.6737 15.1471C67.9525 12.549 68.4454 9.18137 69.4014 6.72549C69.6155 6.18137 69.8146 5.65196 70.0785 5.13725C70.2179 4.86765 70.3275 4.65686 70.4718 4.39706C70.8353 3.7451 71.2386 3.32843 71.6768 2.7598C72.1746 2.11275 72.8169 1.61765 73.499 1.16667C74.6392 0.411765 76.1777 0.0245098 77.6913 0.00980392L77.6614 0ZM15.2604 23.0294C15.2604 22.6912 15.2604 22.3873 15.9625 22.6176C16.8288 22.902 17.5906 23.5049 18.2777 24.0784C18.6162 24.3578 19.0693 24.799 19.3432 25.1471C19.7315 25.6471 20.1647 26.2941 19.6021 26.8529C19.0494 27.402 17.9789 26.8824 17.501 26.5735C16.8786 26.1765 16.4653 25.7157 16.0421 25.152C15.9027 24.9657 15.8031 24.7598 15.6836 24.5539C15.4845 24.2206 15.2604 23.451 15.2604 23.0294Z" fill="#DD4A6C"/>
<path fill-rule="evenodd" clip-rule="evenodd" d="M21.8874 41.2644C22.1214 41.2448 22.4102 41.0879 22.5695 40.9801C23.4558 40.4017 23.8391 40.1321 25.0042 40.1321C25.7062 40.1321 24.7951 41.2007 24.7901 41.5438C25.283 41.4311 25.2133 41.2791 25.6166 41.0144C25.6714 41.1174 25.6963 41.1713 25.761 41.2595C26.0349 41.2595 26.2041 41.2595 26.4381 41.2987C26.6821 41.3428 26.7717 41.4605 26.9809 41.5046C26.9809 42.6615 26.3236 42.5389 26.1942 43.0193C25.9851 43.0193 25.9452 42.985 25.766 42.985C25.537 42.985 25.4025 43.0879 25.2283 43.1272C25.2631 43.5487 26.0149 43.4311 26.0149 44.2546C25.5619 44.2644 25.2532 44.5389 24.118 44.5389C23.6051 44.5389 23.2267 44.5046 22.7189 44.5046C22.7786 44.7252 23.1272 44.887 23.3512 44.9752C24.8698 45.5585 28.8579 44.5634 26.9908 43.4066C26.7966 43.2889 26.3784 43.1762 26.2689 43.0242C27.0754 43.0242 27.9866 42.2154 27.9866 41.1909C27.9866 41.0732 27.4837 40.9311 27.3543 40.8968C26.7269 40.7252 26.234 40.8134 25.6565 40.9458C25.7759 40.436 26.483 39.3232 25.3677 39.3232C24.2524 39.3232 21.9671 40.3625 21.8924 41.2644" fill="#DD4A6C"/>
<path fill-rule="evenodd" clip-rule="evenodd" d="M19.0942 39.0781C19.0942 39.8477 19.2535 40.7399 19.4577 41.333C19.5921 41.7301 19.846 42.3036 20.1448 42.5977C20.2543 42.7056 20.3439 42.8722 20.5281 42.8869C20.4933 42.7497 20.4883 42.5487 20.4684 42.4164C20.3887 41.8722 20.2493 41.5634 20.2045 41.0536C20.1348 40.3134 20.1 39.6419 20.1 38.8281C20.1 38.2742 20.3141 38.2154 20.4933 37.8771C21.3945 38.3428 21.4841 40.2154 21.2152 41.235C21.1754 41.3968 21.1306 41.5095 21.0758 41.6664C21.026 41.8134 20.9514 41.9409 20.9165 42.0781C21.4343 42.034 21.7331 41.3526 21.8177 40.8477C21.9123 40.3036 21.8625 39.4654 21.7679 38.9115C21.6484 38.2203 21.3198 36.1615 20.3439 36.0781C20.0153 36.686 19.0892 38.2693 19.0892 39.0781" fill="#DD4A6C"/>
<path fill-rule="evenodd" clip-rule="evenodd" d="M23.5354 49.6961C23.7894 49.5246 24.108 48.9854 24.108 48.5344C24.108 47.8579 24.0632 47.3089 23.7844 46.701C23.3811 45.8089 22.6293 44.7844 21.7828 44.2599C21.6235 44.1618 21.3845 44.005 21.1655 43.9854C21.1057 44.2403 20.7273 45.6373 20.7422 45.7746C20.8169 46.451 20.9364 47.054 21.1555 47.5883C21.6136 48.7108 22.226 48.9314 23.1371 49.5148C23.2417 49.5834 23.396 49.6667 23.5255 49.6961M21.3497 44.4412C21.499 44.5197 21.5936 44.5981 21.7181 44.7157C22.1264 45.0883 22.2558 45.1716 22.6342 45.7206C23.0226 46.2795 23.4259 47.1667 23.3014 47.9853C23.2765 48.1422 23.3064 48.1814 23.1471 48.1814C22.8035 48.1814 22.4301 47.9608 22.2359 47.701C21.6633 46.9412 21.3547 45.3677 21.3547 44.4412H21.3497Z" fill="#DD4A6C"/>
<path fill-rule="evenodd" clip-rule="evenodd" d="M18.2727 49.2693C18.2727 49.3673 18.6362 49.3722 18.7009 49.3722C19.144 49.3722 19.4676 49.0585 19.7465 48.784C20.1249 48.4163 20.3838 47.985 20.3838 47.2595C19.9157 47.2595 20.1597 47.5046 19.5224 47.5046C19.4676 46.8722 19.4527 46.8036 19.5523 46.1222C19.5971 45.8232 19.6469 45.5732 19.7265 45.3036C19.8012 45.0536 19.856 44.8036 19.9456 44.5634C19.9904 44.436 20.0303 44.333 20.085 44.2056C20.1448 44.0585 20.2045 44.0046 20.2095 43.833C19.607 43.8477 19.378 44.1614 19.134 44.6075C18.8602 45.1075 18.7556 45.3673 18.6362 45.9507C18.437 46.9458 18.2727 48.0781 18.2727 49.2644" fill="#DD4A6C"/>
<path fill-rule="evenodd" clip-rule="evenodd" d="M16.0471 39.8921C16.0471 40.1764 16.1367 40.4019 16.2263 40.598C16.2911 40.7352 16.4753 41.0245 16.5749 41.1372C16.7342 41.3137 16.8388 41.4313 17.0031 41.598C17.3267 41.9215 18.1681 42.5048 18.6113 42.6911L19.9456 43.1764C19.9108 43.0294 19.8261 42.8872 19.7216 42.799C18.8851 42.1127 18.8453 42.3137 18.0984 41.2597C17.9988 41.1176 17.6553 40.6029 17.6205 40.4656C17.6802 40.495 17.9491 40.5195 18.2229 40.6127C18.3922 40.6715 18.6013 40.7499 18.8353 40.7499C18.8054 40.6323 18.6113 40.4068 18.5216 40.3186C18.1681 39.9558 17.5856 39.5146 17.008 39.5146C16.7242 39.5146 16.0421 39.5343 16.0421 39.9019" fill="#DD4A6C"/>
<path fill-rule="evenodd" clip-rule="evenodd" d="M20.4933 43.3139C20.7173 43.26 21.1704 42.8777 21.3795 42.7404C21.6833 42.5394 21.9521 42.363 22.2957 42.1963C23.0674 41.8189 23.8541 41.7551 24.3619 42.5002C24.2076 42.8139 24.113 43.0296 23.6201 43.2159C23.0674 43.4218 22.2558 43.363 21.6733 43.309C21.514 43.2943 21.4692 43.26 21.4692 43.3728C21.4692 43.4316 21.5339 43.6032 21.5737 43.6571C21.6833 43.7845 22.4002 44.0198 22.7139 44.0198C23.2516 44.0198 23.3612 43.9904 23.864 43.8139C24.337 43.6473 24.8847 43.2796 25.283 42.9904C25.6116 42.7502 25.6166 42.7208 25.6166 42.1865C25.1984 42.1522 23.879 41.0885 22.3007 41.7061C22.1363 41.7698 22.0666 41.8287 21.9322 41.912C21.509 42.1718 21.3945 42.3434 20.9563 42.6473C20.7771 42.7747 20.5132 43.0443 20.4933 43.3189" fill="#DD4A6C"/>
<path fill-rule="evenodd" clip-rule="evenodd" d="M31.9 51.0537C32.0594 51.1517 32.4876 51.2546 32.7066 51.3184C33.6925 51.6125 33.9613 51.7546 34.3845 52.7595L107.361 52.8821C107.744 52.8821 111.981 52.9115 112.524 52.8723L113.46 51.6419C113.893 51.1958 114.416 51.2939 115.013 51.0537V44.2595C114.072 43.9262 113.37 43.9017 112.892 43.1468C112.718 42.8674 112.713 42.6517 112.579 42.4017H110.189C106.206 42.3919 101.869 42.338 97.9356 42.3772L39.6124 42.2791C38.7361 42.2791 35.0069 42.2399 34.4542 42.2791C34.2601 42.7644 33.8767 43.3625 33.4385 43.6762C33.1896 43.8527 32.9207 43.9458 32.5722 44.0291C32.2336 44.1125 31.8453 44.1223 31.8502 44.4948M37.2076 47.1468L39.6771 47.1223C39.6622 46.5978 39.4879 44.8968 39.5327 44.6125H40.9418C40.9069 45.0488 40.7825 45.5488 40.7426 46.0291C40.6978 46.5586 40.6779 47.0733 40.6779 47.6174C40.6779 48.137 40.6779 48.7056 40.7327 49.2203C40.7576 49.4507 40.7825 49.6909 40.8173 49.936C40.8522 50.1762 40.9318 50.4262 40.9517 50.6517L39.4531 50.6615L39.7369 48.1174L37.2225 48.039L37.3569 50.6468H35.928C35.9429 50.4507 36.0326 50.1958 36.0674 49.9752C36.3313 48.3429 36.1471 46.1958 35.933 44.6125C36.2516 44.6027 37.1528 44.5733 37.4167 44.6321C37.2474 45.5193 37.2126 46.2007 37.2126 47.1468H37.2076ZM60.1057 44.6517L61.6691 44.637C61.7039 45.1321 62.9288 46.4605 63.1976 46.7939C63.6109 47.2988 64.4424 48.5733 64.9004 48.7742C64.9203 47.3184 64.8705 46.0586 64.7411 44.6419H66.0157C65.941 45.6811 65.8315 46.5733 65.8414 47.6566C65.8414 48.1664 65.8763 48.6664 65.9111 49.1713C65.936 49.5488 66.0605 50.3478 66.0257 50.6517C65.8614 50.7007 65.2689 50.6958 65.0946 50.6517C64.8606 50.5978 64.6963 50.3576 64.5618 50.186C63.9743 49.436 62.4358 47.2203 61.8682 46.8772C61.7537 48.2154 61.9828 49.3968 62.0226 50.6664L60.6633 50.6517C60.6783 50.1664 60.7779 49.5586 60.8177 49.0537C60.8774 48.3233 60.972 46.3429 60.8525 45.686C60.738 45.0831 60.265 45.0537 60.1107 44.6517H60.1057ZM70.2229 45.6419C69.5209 45.5439 69.7051 45.3527 68.555 45.3723L68.5649 47.2203L70.447 47.2595C70.3673 47.5193 70.0686 47.936 69.9441 48.1958L68.5599 47.9409V49.9458C69.9042 50.0193 70.0785 49.6762 71.0245 49.5733C70.9847 49.7693 70.8801 49.9605 70.8054 50.1419C70.5216 50.8233 70.8951 50.6615 68.9582 50.6615H67.2903C67.3451 50.1811 67.4496 49.7203 67.4895 49.2105C67.5741 48.1664 67.589 47.0782 67.4895 46.0341C67.4596 45.6909 67.2853 44.8919 67.3003 44.6615C68.3707 44.6615 69.6055 44.6223 70.671 44.6517L70.2129 45.6468L70.2229 45.6419ZM108.939 47.2595C109.069 47.7105 109.95 48.7056 110.209 48.9703C110.493 49.2595 111.389 50.2252 111.538 50.6566H109.975C109.746 49.7791 108.874 48.9017 108.312 48.2301C108.202 48.1027 107.963 47.7988 107.819 47.735C107.729 49.3184 107.804 48.9164 107.988 50.6566H106.509C106.629 49.3674 106.773 49.2007 106.768 47.6468C106.768 47.1419 106.753 46.6027 106.709 46.1076C106.664 45.6174 106.569 45.1125 106.544 44.6468H108.003C108.003 44.7988 107.789 45.3919 107.794 46.338V46.985C108.018 46.9017 108.64 46.1468 108.84 45.9213C109.079 45.6419 109.586 45.0488 109.686 44.637H111.299C111.195 44.8478 109.064 47.0635 108.944 47.2595H108.939ZM48.9828 44.637C50.4018 44.6321 51.9403 44.5537 52.3635 45.7939C52.6024 46.4997 52.3933 47.2007 51.9851 47.5144C51.527 47.8674 50.9743 48.0046 50.2375 48.0488L50.4067 50.6615L48.9131 50.6468C49.1222 49.3086 49.2267 49.1909 49.2267 47.6811C49.2267 47.1419 49.2018 46.6566 49.157 46.1272C49.1371 45.8625 48.9579 44.7644 48.9877 44.6321L48.9828 44.637ZM59.2244 50.6517H57.7308C57.9996 49.1958 58.0992 47.5684 57.9548 46.0635C57.905 45.5586 57.7955 45.1223 57.7407 44.6468H59.2195C59.1697 45.1027 59.0452 45.5586 59.0004 46.0635C58.9506 46.588 58.9456 47.1174 58.9506 47.6517C58.9606 48.7448 59.1199 49.6174 59.2244 50.6517ZM99.3098 44.7007C101.127 44.6174 100.43 44.338 102.023 46.3429C102.347 46.7497 102.666 47.1615 102.994 47.5733C103.253 47.8968 103.771 48.5733 104.065 48.735C104.11 48.0586 104.105 47.3429 104.095 46.6566C104.085 45.9409 103.975 45.3037 103.935 44.6321H105.205C105.18 45.1223 105.115 45.637 105.075 46.1321C105.011 47.0242 105.011 48.338 105.07 49.235C105.09 49.5095 105.27 50.5144 105.24 50.6272L104.035 50.6615C103.945 50.5537 103.791 50.2497 103.706 50.1174C103.313 49.4997 101.511 47.1272 101.028 46.8233C101.023 47.8576 100.978 48.7497 101.117 49.7742C101.157 50.0586 101.247 50.3674 101.267 50.637L99.8575 50.6566C99.8924 50.1272 100.002 49.6125 100.022 49.0537C100.042 48.5684 100.116 45.9997 100.047 45.7105C99.972 45.4066 99.7231 45.1517 99.509 44.936C99.3795 44.8037 99.3795 44.838 99.3049 44.7007H99.3098ZM86.5588 45.637C86.1356 45.6272 85.3389 45.2988 84.9854 45.3184C84.9854 47.7595 84.8958 48.0291 85.1448 50.6468H83.7905L83.9349 49.3723C84.0096 48.4066 83.9747 46.3625 83.9448 45.3429C82.9142 45.4066 82.5009 45.686 82.0329 45.7203C82.0628 45.5439 82.2769 44.7644 82.3566 44.6419L86.9621 44.6321L86.5538 45.6321L86.5588 45.637ZM93.0712 44.6958L94.4803 44.6713C94.2712 45.4997 94.1766 46.9948 94.2313 47.8674C94.2911 48.9066 94.6446 49.8919 95.72 49.9164C98.0203 49.9654 96.8801 45.1713 96.9648 44.6664L98.3091 44.6321C98.2493 45.7644 98.1049 46.338 98.1298 47.6468C98.1497 48.6664 98.2344 49.6517 98.3041 50.6517H97.2983L97.0394 50.1615C96.4768 50.5046 95.8594 50.8233 94.9732 50.6811C93.1459 50.387 93.1957 48.5831 93.2306 47.1468C93.2405 46.7154 93.2654 46.2791 93.2405 45.8478C93.2306 45.6272 93.2156 45.4458 93.1857 45.2399C93.1609 45.0929 93.0712 44.7988 93.0712 44.6958ZM53.3841 44.637C54.8778 44.637 56.3665 44.5635 56.7798 45.8135C57.2727 47.3037 56.018 48.0242 54.6587 48.0439L54.8181 50.6615L53.3244 50.6517C53.3692 50.1909 53.4937 49.7203 53.5435 49.2252C53.643 48.2203 53.6381 47.137 53.5584 46.1321C53.5186 45.6321 53.414 45.1174 53.3841 44.637ZM87.9678 44.6762C89.2026 44.588 90.5419 44.6811 91.1792 45.387C91.7419 46.0046 91.6124 46.8919 91.0398 47.485C90.761 47.7742 90.5768 47.789 90.4623 47.8968C90.7013 48.8282 92.3841 50.3282 92.3792 50.6321C91.3336 50.7105 90.9104 50.2252 90.4573 49.735C90.1884 49.4507 89.3868 48.3723 89.1329 48.2056L89.2225 50.6615H87.928C87.928 50.186 88.0027 49.6517 88.0375 49.1811C88.1072 48.2595 88.1222 47.0635 88.0475 46.1419C88.0276 45.8968 87.933 44.838 87.9728 44.6762H87.9678ZM71.846 50.5242L71.861 49.2252C72.0054 49.2791 72.1995 49.4458 72.3738 49.5439C72.9514 49.8919 73.8177 50.1419 73.9173 49.2007C74.0069 48.3576 72.7622 48.0488 72.1946 47.5341C71.2486 46.6713 71.3083 44.3233 74.0915 44.6811C74.9429 44.789 74.7637 44.6664 74.7637 45.8478C74.5695 45.7939 72.3688 44.7399 72.7323 46.3331C72.9663 47.3576 75.0774 47.289 75.0923 48.9899C75.1023 49.9703 74.3504 50.5242 73.3895 50.637C72.7622 50.7105 72.3738 50.5782 71.841 50.5242H71.846ZM75.9387 50.5488L75.9686 49.2203C76.1229 49.2644 76.5013 49.6713 76.9893 49.8282C77.5569 50.0095 77.9303 49.5488 78.0099 49.2154C78.1693 48.5291 76.6955 47.9017 76.2773 47.5733C75.6101 47.0537 75.4757 45.8625 76.113 45.1615C76.6607 44.5586 77.9104 44.5537 78.8365 44.8429L78.8763 45.8674C78.4232 45.7399 78.1145 45.5193 77.5668 45.485C76.9544 45.4409 76.6656 45.7841 76.8449 46.3821C76.9494 46.7301 77.3577 46.9801 77.6863 47.1762C78.0647 47.4066 78.3834 47.5782 78.6771 47.8576C79.6082 48.7497 79.2796 50.3772 77.4971 50.6076C76.8797 50.6909 76.5163 50.6076 75.9487 50.5439L75.9387 50.5488ZM41.7932 50.6517L42.6147 49.1468C42.8935 48.637 43.1823 48.1468 43.4512 47.6419L45.0594 44.7448C45.1739 44.6076 45.0594 44.7056 45.1789 44.6566C45.1789 44.686 45.4975 45.1909 45.5672 45.3233C45.6967 45.5733 45.8162 45.8135 45.9456 46.0782C46.553 47.3674 47.0808 48.7399 47.8077 49.8919C47.9272 50.0831 48.1612 50.4066 48.206 50.6419H46.6576C46.6078 50.0684 46.3489 49.2203 46.0253 48.8282C45.5722 48.7939 44.9897 48.7742 44.5416 48.7939C43.9889 48.8184 43.8594 49.0586 43.6852 49.4752C43.5507 49.7988 43.5109 50.4311 43.3068 50.588C43.1524 50.7056 42.0919 50.6517 41.8031 50.6468L41.7932 50.6517Z" fill="#008080"/>
<path fill-rule="evenodd" clip-rule="evenodd" d="M117 43.5837V52.4808C116.069 52.6916 115.656 53.0249 115.422 53.9955H33.0502C32.8958 53.9857 32.7863 53.9759 32.7514 53.9514C32.4527 53.7553 32.5473 53.3386 31.91 52.8043C31.6063 52.5494 31.0586 52.5298 31.0586 52.3337V42.8092C31.0586 42.6376 31.9598 42.27 32.0693 42.1818C32.1589 42.1082 32.612 41.2602 32.6369 41.1523H115.427C115.785 42.672 116.731 42.2553 116.98 42.868C116.99 42.8925 117 43.1572 117.005 43.5739M31.8602 44.5102C31.8602 44.1327 32.2486 44.1229 32.5822 44.0445C32.9307 43.9612 33.1995 43.868 33.4485 43.6916C33.8866 43.3778 34.27 42.7798 34.4642 42.2945C35.0169 42.2553 38.7461 42.2945 39.6224 42.2945L97.9456 42.3925C101.874 42.3533 106.216 42.4072 110.199 42.4121H112.589C112.723 42.6621 112.723 42.8827 112.902 43.1572C113.38 43.9121 114.082 43.9367 115.028 44.27V51.0641C114.431 51.3043 113.908 51.2063 113.47 51.6523L112.534 52.8827C111.991 52.922 107.754 52.8925 107.371 52.8925L34.3945 52.77C33.9663 51.77 33.7024 51.6229 32.7166 51.3288C32.5025 51.2651 32.0743 51.1572 31.91 51.0641L31.8702 44.52L31.8602 44.5102Z" fill="#2F9594"/>
<path fill-rule="evenodd" clip-rule="evenodd" d="M60.1057 44.6524C60.265 45.0543 60.738 45.0838 60.8476 45.6867C60.972 46.3436 60.8725 48.324 60.8127 49.0543C60.7729 49.5641 60.6733 50.1671 60.6584 50.6524L62.0176 50.6671C61.9728 49.3975 61.7488 48.2161 61.8633 46.8779C62.4309 47.221 63.9694 49.4367 64.5569 50.1867C64.6913 50.3583 64.8556 50.5936 65.0896 50.6524C65.2639 50.6965 65.8564 50.7014 66.0207 50.6524C66.0555 50.3485 65.9261 49.5494 65.9062 49.172C65.8763 48.6671 65.8414 48.1671 65.8365 47.6573C65.8315 46.574 65.941 45.6867 66.0107 44.6426H64.7361C64.8656 46.0641 64.9154 47.324 64.8954 48.7798C64.4374 48.5838 63.6059 47.3043 63.1926 46.7994C62.9188 46.4661 61.699 45.1377 61.6641 44.6426" fill="#FCFDFF"/>
<path fill-rule="evenodd" clip-rule="evenodd" d="M105.075 46.1377C105.11 45.6426 105.18 45.1328 105.205 44.6377H103.935C103.98 45.3093 104.09 45.9465 104.095 46.6622C104.105 47.3436 104.11 48.0593 104.065 48.7406C103.771 48.5789 103.253 47.9024 102.994 47.5789C102.666 47.1671 102.342 46.7504 102.023 46.3485C100.43 44.3436 101.127 44.623 99.3098 44.7063C99.3845 44.8485 99.3845 44.8142 99.514 44.9416C99.7281 45.1573 99.977 45.4122 100.052 45.7161C100.121 46.0053 100.042 48.574 100.027 49.0593C100.007 49.6181 99.8974 50.1328 99.8625 50.6622L101.272 50.6426C101.247 50.373 101.157 50.0642 101.122 49.7799C100.978 48.7553 101.023 47.8632 101.033 46.8289C101.516 47.1328 103.318 49.5053 103.711 50.123C103.796 50.2504 103.95 50.5593 104.04 50.6671L105.245 50.6328C105.275 50.5201 105.095 49.5151 105.075 49.2406C105.021 48.3485 105.016 47.0348 105.08 46.1377" fill="#FCFDFF"/>
<path fill-rule="evenodd" clip-rule="evenodd" d="M37.2076 47.1471C37.2076 46.201 37.2424 45.5196 37.4117 44.6323C37.1478 44.5735 36.2467 44.6029 35.928 44.6127C36.1421 46.201 36.3263 48.348 36.0624 49.9755C36.0276 50.1961 35.938 50.451 35.923 50.652H37.352L37.2175 48.0392L39.7319 48.1176L39.4481 50.6618L40.9468 50.652C40.9268 50.4265 40.8472 50.1765 40.8123 49.9363C40.7775 49.6912 40.7526 49.451 40.7277 49.2206C40.6729 48.7059 40.6679 48.1372 40.6729 47.6176C40.6729 47.0784 40.6928 46.5637 40.7376 46.0294C40.7775 45.549 40.9069 45.049 40.9368 44.6127H39.5278C39.4879 44.902 39.6622 46.6029 39.6722 47.1274" fill="#FCFDFF"/>
<path fill-rule="evenodd" clip-rule="evenodd" d="M108.939 47.2602C109.059 47.0593 111.19 44.8485 111.294 44.6377H109.681C109.581 45.0495 109.079 45.6475 108.835 45.922C108.635 46.1524 108.013 46.9073 107.799 46.9857V46.3387C107.789 45.3926 108.008 44.7995 108.003 44.6524H106.544C106.569 45.1083 106.664 45.6132 106.709 46.1034C106.753 46.5936 106.768 47.1377 106.768 47.6426C106.773 49.1965 106.629 49.3632 106.509 50.6524H107.988C107.809 48.9122 107.734 49.3142 107.819 47.7308C107.963 47.7995 108.202 48.0985 108.312 48.2259C108.874 48.8975 109.746 49.775 109.975 50.6524H111.538C111.394 50.2259 110.493 49.2602 110.209 48.971C109.95 48.7063 109.064 47.7112 108.939 47.2602Z" fill="#FCFDFF"/>
<path fill-rule="evenodd" clip-rule="evenodd" d="M93.0712 44.6965C93.0712 44.7995 93.1609 45.0936 93.1857 45.2407C93.2206 45.4514 93.2306 45.6328 93.2405 45.8485C93.2604 46.2799 93.2405 46.7161 93.2306 47.1475C93.1907 48.5838 93.1409 50.3828 94.9732 50.6818C95.8594 50.824 96.4768 50.5054 97.0394 50.1622L97.2983 50.6573H98.3041C98.2344 49.6524 98.1497 48.672 98.1298 47.6475C98.1049 46.3387 98.2493 45.7652 98.3091 44.6328L96.9648 44.6671C96.8801 45.1671 98.0203 49.9661 95.72 49.9171C94.6496 49.8926 94.2911 48.9073 94.2313 47.8681C94.1766 46.9956 94.2712 45.5005 94.4803 44.672" fill="#FCFDFF"/>
<path fill-rule="evenodd" clip-rule="evenodd" d="M90.4523 49.7355C90.9104 50.2208 91.3286 50.7061 92.3742 50.6326C92.3742 50.3287 90.6963 48.8287 90.4573 47.8973C90.5768 47.7894 90.761 47.7747 91.0349 47.4855C91.6074 46.8875 91.7369 46.0051 91.1743 45.3875C90.537 44.6865 89.1976 44.5885 87.9629 44.6767C87.923 44.8385 88.0226 45.8973 88.0375 46.1424C88.1122 47.0639 88.0973 48.26 88.0276 49.1816C87.9927 49.6522 87.918 50.1865 87.918 50.6571H89.2126L89.1229 48.211C89.3769 48.3777 90.1785 49.4561 90.4473 49.7404M89.118 45.3041C89.4018 45.2894 89.8748 45.5051 90.059 45.6424C91.3286 46.5689 89.6806 47.7306 89.113 47.6375V45.3041H89.118Z" fill="#FCFDFF"/>
<path fill-rule="evenodd" clip-rule="evenodd" d="M41.7932 50.6523C42.082 50.6572 43.1425 50.716 43.2968 50.5935C43.501 50.4366 43.5408 49.8092 43.6752 49.4808C43.8495 49.0641 43.9789 48.8288 44.5316 48.7994C44.9797 48.7749 45.5622 48.7994 46.0153 48.8337C46.3439 49.2259 46.6028 50.0739 46.6476 50.6523H48.1961C48.1513 50.4072 47.9223 50.0886 47.7978 49.8925C47.0709 48.7406 46.5431 47.3729 45.9357 46.0788C45.8112 45.8141 45.6867 45.569 45.5573 45.3239C45.4876 45.1915 45.1739 44.6866 45.1689 44.6572C45.0494 44.7062 45.1689 44.6082 45.0494 44.7455L43.4412 47.6425C43.1674 48.1474 42.8786 48.6376 42.6047 49.1474M44.4619 47.9611C44.4718 47.8435 44.9249 46.8337 44.9946 46.7357L45.1291 46.8484C45.1789 46.9121 45.1938 46.9366 45.2286 46.9955C45.4129 47.2896 45.5523 47.6719 45.622 48.0053L44.4569 47.9562L44.4619 47.9611Z" fill="#FCFDFF"/>
<path fill-rule="evenodd" clip-rule="evenodd" d="M70.676 44.6475C69.6105 44.6181 68.3807 44.6475 67.3052 44.6573C67.2953 44.8877 67.4646 45.6867 67.4944 46.0299C67.594 47.0789 67.5741 48.1622 67.4944 49.2063C67.4546 49.721 67.3451 50.1769 67.2953 50.6573H68.9632C70.8951 50.6573 70.5216 50.824 70.8104 50.1377C70.8851 49.9563 70.9847 49.7651 71.0295 49.5691C70.0835 49.6671 69.9142 50.0151 68.5599 49.9416V47.9367L69.9491 48.1916C70.0735 47.9318 70.3723 47.5151 70.4519 47.2553L68.5699 47.2161L68.5599 45.3681C69.7101 45.3485 69.5259 45.5397 70.2279 45.6377" fill="#FCFDFF"/>
<path fill-rule="evenodd" clip-rule="evenodd" d="M53.3244 50.6522L54.8181 50.662L54.6587 48.0444C56.018 48.0248 57.2727 47.3042 56.7798 45.814C56.3665 44.564 54.8728 44.6375 53.3841 44.6375C53.409 45.1179 53.5186 45.6326 53.5584 46.1326C53.6381 47.1375 53.648 48.2209 53.5435 49.2258C53.4937 49.7209 53.3742 50.1915 53.3244 50.6522ZM54.6538 45.2013C54.9177 45.1375 55.3558 45.4366 55.4653 45.5542C56.257 46.3581 55.545 47.5493 54.6339 47.564L54.6488 45.2062L54.6538 45.2013Z" fill="#FCFDFF"/>
<path fill-rule="evenodd" clip-rule="evenodd" d="M52.3635 45.7942C51.9452 44.554 50.4018 44.6324 48.9828 44.6373C48.9529 44.7697 49.1272 45.8677 49.152 46.1324C49.1969 46.6619 49.2218 47.1472 49.2218 47.6864C49.2218 49.1913 49.1222 49.3138 48.9081 50.6521L50.4018 50.6668L50.2325 48.054C50.9743 48.005 51.522 47.8677 51.9801 47.5197C52.3884 47.206 52.5975 46.505 52.3585 45.7991M50.2325 45.1864C51.532 45.1766 51.9701 47.3432 50.2325 47.5736V46.4511V45.1913V45.1864Z" fill="#FCFDFF"/>
<path fill-rule="evenodd" clip-rule="evenodd" d="M75.9387 50.5486C76.5113 50.6074 76.8698 50.6908 77.4872 50.6123C79.2696 50.377 79.6032 48.7545 78.6672 47.8623C78.3784 47.5829 78.0548 47.4064 77.6764 47.1809C77.3478 46.9849 76.9445 46.7349 76.8349 46.3868C76.6557 45.7937 76.9445 45.4506 77.5569 45.4898C78.1046 45.529 78.4132 45.7447 78.8663 45.8721L78.8265 44.8476C77.9004 44.5584 76.6507 44.5633 76.103 45.1662C75.4707 45.8672 75.6002 47.0584 76.2673 47.578C76.6905 47.9113 78.1643 48.5388 78 49.2202C77.9203 49.5486 77.5469 50.0143 76.9793 49.8329C76.4914 49.676 76.113 49.2741 75.9586 49.2251" fill="#FCFDFF"/>
<path fill-rule="evenodd" clip-rule="evenodd" d="M71.846 50.5245C72.3788 50.5784 72.7671 50.7108 73.3945 50.6372C74.3554 50.5196 75.1023 49.9657 75.0973 48.9902C75.0823 47.2892 72.9713 47.3578 72.7373 46.3333C72.3738 44.7402 74.5695 45.799 74.7687 45.848C74.7687 44.6666 74.9479 44.7892 74.0965 44.6813C71.3083 44.3235 71.2535 46.6715 72.1995 47.5343C72.7622 48.049 74.0119 48.3578 73.9223 49.2009C73.8177 50.147 72.9563 49.8921 72.3788 49.5441C72.2095 49.4411 72.0103 49.2794 71.8659 49.2255" fill="#FCFDFF"/>
<path fill-rule="evenodd" clip-rule="evenodd" d="M86.9671 44.6377L82.3615 44.6475C82.2819 44.7701 82.0678 45.5544 82.0379 45.7259C82.5059 45.6867 82.9192 45.4122 83.9498 45.3485C83.9797 46.373 84.0195 48.4122 83.9399 49.3779L83.7955 50.6475H85.1498C84.8958 48.0348 84.9854 47.7651 84.9904 45.324C85.3439 45.2995 86.1455 45.6328 86.5638 45.6426" fill="#FCFDFF"/>
<path fill-rule="evenodd" clip-rule="evenodd" d="M59.2244 50.6524C59.1199 49.6181 58.9606 48.7406 58.9506 47.6524C58.9456 47.123 58.9506 46.5887 59.0004 46.0642C59.0502 45.5593 59.1697 45.1034 59.2195 44.6377H57.7407C57.7955 45.1181 57.91 45.5593 57.9548 46.0593C58.0992 47.5691 57.9946 49.1916 57.7308 50.6524" fill="#FCFDFF"/>
<path fill-rule="evenodd" clip-rule="evenodd" d="M89.113 47.6368C89.6806 47.7299 91.3286 46.5633 90.059 45.6417C89.8698 45.5044 89.4018 45.2887 89.118 45.3034" fill="#008080"/>
<path fill-rule="evenodd" clip-rule="evenodd" d="M50.2225 46.4513V47.5738C51.9701 47.3434 51.532 45.1768 50.2325 45.1866" fill="#008080"/>
<path fill-rule="evenodd" clip-rule="evenodd" d="M54.6388 47.5639C55.545 47.5541 56.257 46.363 55.4703 45.5541C55.3558 45.4365 54.9177 45.1375 54.6587 45.2012" fill="#008080"/>
<path fill-rule="evenodd" clip-rule="evenodd" d="M44.4669 47.9608L45.617 48.0049C45.5473 47.6716 45.4079 47.2941 45.2286 47.0049C45.1938 46.951 45.1789 46.9216 45.1291 46.8579L44.9946 46.7451C44.9249 46.8432 44.4768 47.8432 44.4669 47.9559" fill="#008080"/>
</g>
<defs>
<clipPath id="clip0_92_41">
<rect width="117" height="54" fill="white"/>
</clipPath>
</defs>
</svg>
